<svg width="695" height="138" viewBox="0 0 695 138" xmlns="http://www.w3.org/2000/svg">
    <title>
        prosperLogoWhite
    </title>
    <defs>
        <linearGradient x1="50%" y1="0%" x2="50%" y2="100%" id="a">
            <stop stop-color="#FFF" offset="0%"/>
            <stop offset="100%"/>
        </linearGradient>
    </defs>
    <g fill="none" fill-rule="evenodd">
        <path d="M31.787 66.292h-17.09v30.123h17.09c11.108 0 18.04-6.098 18.04-15.062 0-9.917-7.048-15.06-18.04-15.06zm-.477 43.383H14.698v26.888H0v-83.65h32.982c19.478 0 31.79 10.997 31.79 28.082 0 18.884-15.063 28.68-33.462 28.68zm87.587-43.383H97.505v28.09h21.51c10.51 0 17.204-5.503 17.204-14.104 0-9.204-6.45-13.986-17.324-13.986zm17.564 70.27l-20.546-29.16h-18.41v29.16H82.81V52.915h37.278c19.24 0 31.068 10.16 31.068 26.532 0 13.86-8.24 22.223-19.95 25.453l22.586 31.663h-17.33zm75.64-71.576c-16.612 0-28.198 13.263-28.198 29.63 0 16.378 11.828 29.88 28.438 29.88 16.608 0 28.198-13.26 28.198-29.636 0-16.37-11.832-29.874-28.438-29.874zm0 73.014c-25.693 0-43.618-19.48-43.618-43.14 0-23.658 18.166-43.377 43.858-43.377 25.688 0 43.608 19.476 43.608 43.133C255.948 118.28 237.79 138 212.1 138zm96.325-49.952c17.688 4.305 26.882 10.633 26.882 24.617 0 15.776-12.3 25.095-29.87 25.095-12.783 0-24.858-4.418-34.897-13.38l8.843-10.513c8.01 6.93 16.01 10.873 26.41 10.873 9.08 0 14.817-4.188 14.817-10.638 0-6.104-3.34-9.32-18.88-12.907-17.805-4.295-27.836-9.56-27.836-25.102 0-14.57 11.943-24.366 28.558-24.366 12.184 0 21.862 3.7 30.35 10.505l-7.89 11.114c-7.53-5.61-15.055-8.6-22.707-8.6-8.597 0-13.622 4.417-13.622 10.04 0 6.567 3.825 9.435 19.842 13.262m78.985-21.756h-17.09v30.123h17.09c11.108 0 18.04-6.098 18.04-15.062 0-9.917-7.054-15.06-18.04-15.06zm-.483 43.383H370.32v26.888h-14.696v-83.65h32.98c19.48 0 31.78 10.997 31.78 28.082 0 18.884-15.05 28.68-33.457 28.68zm113.517-43.61H453.13v21.74h41.94v13.15h-41.94v22.466h47.913v13.144H438.43v-83.65h62.014v13.152m57.126.226h-21.392v28.09h21.51c10.515 0 17.206-5.503 17.206-14.104 0-9.204-6.455-13.986-17.324-13.986zm17.56 70.27l-20.554-29.16h-18.398v29.16h-14.7V52.915h37.282c19.236 0 31.068 10.16 31.068 26.532 0 13.86-8.246 22.223-19.954 25.453l22.584 31.663H575.13z" fill="#FFF"/>
        <path d="M-.383.65l.11-.197v-.06l-.11.258" fill="url(#a)" transform="translate(611 109)"/>
        <path d="M628.675 16.766h26.12c13.28 0 21.158 5.84 21.158 17.073 0 10.497-8.172 17.224-21.017 17.224h-26.26v-34.3zm65.513 16.055c0-19.994-14.442-32.392-37.932-32.392h-45.53v108.966l.023-.06-.024.12 71.286-51.125h-.288c7.638-5.435 12.463-13.88 12.463-25.508zm-93.864 96.27h1.423c1.203 0 2.305-.056 2.305-1.434 0-1.158-1.003-1.34-1.922-1.34h-1.806v2.774zm-1.36-3.89h3.387c2.087 0 3.064.824 3.064 2.498 0 1.604-1.01 2.258-2.29 2.41l2.492 3.85h-1.468l-2.38-3.752h-1.443v3.75h-1.36V125.2zm2.928 10.782c3.452 0 6.145-2.76 6.145-6.435 0-3.573-2.693-6.343-6.145-6.343-3.53 0-6.2 2.77-6.2 6.343 0 3.676 2.67 6.435 6.2 6.435zm0-13.878c4.08 0 7.516 3.222 7.516 7.443 0 4.307-3.436 7.55-7.516 7.55-4.115 0-7.56-3.243-7.56-7.55 0-4.22 3.445-7.443 7.56-7.443z" fill="#FFF"/>
    </g>
</svg>
